<!DOCTYPE svg PUBLIC "-//W3C//DTD SVG 1.1//EN" "http://www.w3.org/Graphics/SVG/1.1/DTD/svg11.dtd">
<!-- Uploaded to: SVG Repo, www.svgrepo.com, Transformed by: SVG Repo Mixer Tools -->
<svg height="64px" width="64px" version="1.1" id="Layer_1" xmlns="http://www.w3.org/2000/svg" xmlns:xlink="http://www.w3.org/1999/xlink" viewBox="0 0 512.00 512.00" xml:space="preserve" fill="#000000" stroke="#000000" stroke-width="0.0051199900000000005">
<g id="SVGRepo_bgCarrier" stroke-width="0"/>
<g id="SVGRepo_tracerCarrier" stroke-linecap="round" stroke-linejoin="round" stroke="#CCCCCC" stroke-width="4.095992000000001"/>
<g id="SVGRepo_iconCarrier"> <path style="fill:#6566cd;" d="M384.955,256l120.28-120.28c9.019-9.019,9.019-23.642,0-32.66L408.94,6.765 c-9.019-9.019-23.642-9.019-32.66,0l-120.28,120.28L135.718,6.765c-9.019-9.019-23.642-9.019-32.66,0L6.764,103.058 c-9.019,9.019-9.019,23.642,0,32.66l120.28,120.28L6.764,376.28c-9.019,9.019-9.019,23.642,0,32.66l96.295,96.294 c9.019,9.019,23.642,9.019,32.66,0l120.28-120.28l120.28,120.28c9.019,9.019,23.642,9.019,32.66,0l96.295-96.294 c9.019-9.019,9.019-23.642,0-32.66L384.955,256z"/> </g>
</svg>